<svg width="21" height="20" viewBox="0 0 21 20" fill="none" xmlns="http://www.w3.org/2000/svg">
<path d="M2.30747 12.308C2.13026 13.4696 2.92253 14.276 3.89257 14.6778C7.61154 16.2185 12.7869 16.2185 16.5058 14.6778C17.4759 14.276 18.2681 13.4696 18.0909 12.308C17.982 11.594 17.4435 10.9995 17.0445 10.419C16.5219 9.64938 16.47 8.80979 16.47 7.91663C16.47 4.46484 13.6624 1.66663 10.1992 1.66663C6.73597 1.66663 3.92847 4.46484 3.92847 7.91663C3.92839 8.80979 3.87647 9.64938 3.35387 10.419C2.9549 10.9995 2.41637 11.594 2.30747 12.308Z" stroke="#667085" stroke-width="1.5" stroke-linecap="round" stroke-linejoin="round"/>
<path d="M6.86591 15.8334C7.24798 17.271 8.59549 18.3334 10.1992 18.3334C11.803 18.3334 13.1505 17.271 13.5326 15.8334" stroke="#667085" stroke-width="1.5" stroke-linecap="round" stroke-linejoin="round"/>
</svg>
