<svg width="20" height="20" viewBox="0 0 20 20" fill="none" xmlns="http://www.w3.org/2000/svg">
<path d="M5.20817 8.43148C7.16418 8.43148 8.74984 6.84582 8.74984 4.88981C8.74984 2.9338 7.16418 1.34814 5.20817 1.34814C3.25216 1.34814 1.6665 2.9338 1.6665 4.88981C1.6665 6.84582 3.25216 8.43148 5.20817 8.43148Z" stroke="#5E5D5D" stroke-width="1.5"/>
<path d="M15.0002 7.47942V8.4318M15.0002 7.47942C14.1567 7.47942 13.4136 7.05853 12.9777 6.41944M15.0002 7.47942C15.8437 7.47942 16.5867 7.05853 17.0227 6.41944M12.9777 6.41944L12.0838 7.00323M12.9777 6.41944C12.7199 6.04146 12.5696 5.58716 12.5696 5.09847C12.5696 4.60984 12.7198 4.15559 12.9776 3.77764M17.0227 6.41944L17.9165 7.00323M17.0227 6.41944C17.2804 6.04146 17.4307 5.58716 17.4307 5.09847C17.4307 4.60984 17.2805 4.15559 17.0227 3.77764M15.0002 2.71752C15.8437 2.71752 16.5869 3.13847 17.0227 3.77764M15.0002 2.71752C14.1566 2.71752 13.4134 3.13847 12.9776 3.77764M15.0002 2.71752V1.76514M17.0227 3.77764L17.9168 3.19371M12.9776 3.77764L12.0835 3.19371" stroke="#5E5D5D" stroke-width="1.5" stroke-linecap="round"/>
<path d="M14.7917 18.015C16.7477 18.015 18.3333 16.4293 18.3333 14.4733C18.3333 12.5173 16.7477 10.9316 14.7917 10.9316C12.8357 10.9316 11.25 12.5173 11.25 14.4733C11.25 16.4293 12.8357 18.015 14.7917 18.015Z" stroke="#5E5D5D" stroke-width="1.5"/>
<path d="M5.20817 18.015C7.16418 18.015 8.74984 16.4293 8.74984 14.4733C8.74984 12.5173 7.16418 10.9316 5.20817 10.9316C3.25216 10.9316 1.6665 12.5173 1.6665 14.4733C1.6665 16.4293 3.25216 18.015 5.20817 18.015Z" stroke="#5E5D5D" stroke-width="1.5"/>
</svg>
