<svg width="204" height="70" viewBox="0 0 204 70" fill="none" xmlns="http://www.w3.org/2000/svg">
<path d="M95.3359 17.5446V20.631H72.8335L72.4084 17.5446H95.3359Z" fill="#4B9FDD"/>
<path d="M89.9283 44.3901V47.4794H76.8564L76.3844 44.3901H89.9283Z" fill="#4B9FDD"/>
<path d="M41.4445 39.6895C41.4445 43.2629 38.9252 46.3188 35.3837 47.5294C34.7804 47.7353 34.149 47.8856 33.4957 47.9775H0V44.8883H33.1863C35.9119 44.404 37.9781 42.2555 37.9781 39.6895C37.9781 36.7645 35.3055 34.3877 32.0235 34.3877H9.54296C9.44606 34.3877 9.34916 34.3877 9.25226 34.3849C4.19165 34.2485 0.118776 30.5387 0.118776 25.9995C0.118776 21.3712 4.34481 17.6085 9.54296 17.6085C9.75552 17.6085 9.96807 17.6141 10.1775 17.6308H39.1283L39.6034 20.72H10.0493C9.88367 20.7061 9.71488 20.6977 9.54296 20.6977C9.44606 20.6977 9.34916 20.7005 9.25226 20.7033C9.17725 20.7089 9.0991 20.7117 9.02409 20.7172H9.02096C5.97959 20.9538 3.58525 23.2303 3.58525 25.9995C3.58525 28.9217 6.25778 31.3013 9.53983 31.3013H32.0203C32.1172 31.3013 32.2141 31.3041 32.311 31.3041C35.1305 31.3792 37.6467 32.5676 39.319 34.3877C40.6475 35.8321 41.4445 37.6801 41.4445 39.6895Z" fill="#4B9FDD"/>
<path d="M9.53983 34.388H9.25226V34.3849C9.34603 34.3849 9.44293 34.388 9.53983 34.388Z" fill="#4B9FDD"/>
<path d="M62.1183 50.3681L61.9902 50.7244L62.1121 50.3654L62.1183 50.3681Z" fill="black"/>
<path d="M78.1035 69.6159H74.6652L68.7481 30.9952L62.1121 50.3654L61.9902 50.7244L57.2797 63.8216L54.7353 70L53.957 64.317L53.9507 64.2863L46.1894 13.6761L45.1111 16.6706L45.0923 16.7291L43.6544 20.7228H42.1072L42.0353 20.2608L41.482 16.7291L41.4789 16.7096L41.4727 16.6706H41.482L41.4789 16.6512L41.4914 16.6122L45.2455 6.17565L47.7898 0L48.5681 5.68026L48.5744 5.71366L56.3357 56.324L58.8457 49.344L58.8707 49.2772L67.7291 23.7007L70.2735 17.525L71.0518 23.2053L71.058 23.2387L78.1035 69.6159Z" fill="#0065A2"/>
<path d="M117.135 46.9784H117.966L122.074 57.3704L126.218 46.9784H127.05V58.5087H126.218V49.1381L122.518 58.5087H121.63L117.966 49.1381V58.5087H117.135V46.9784Z" fill="#0065A2"/>
<path d="M135.377 57.9299C134.427 58.4448 133.436 58.7036 132.398 58.7036C130.251 58.7036 129.179 57.9021 129.179 56.299V52.9232C129.179 52.0326 129.491 51.3424 130.113 50.847C130.735 50.3516 131.56 50.1067 132.583 50.1067C133.605 50.1067 134.405 50.3516 134.977 50.8386C135.549 51.3285 135.836 52.0047 135.836 52.8731V54.8491L130.01 55.1301V56.3157C130.01 56.9419 130.238 57.39 130.695 57.6572C131.151 57.9271 131.67 58.0607 132.248 58.0607C133.136 58.0607 134.067 57.8242 135.043 57.3538L135.377 57.9299ZM130.01 52.9232V54.4065L135.005 54.1756V52.7924C135.005 52.0576 134.752 51.5316 134.245 51.2199C133.739 50.9082 133.151 50.7496 132.479 50.7496C131.807 50.7496 131.229 50.9249 130.741 51.2756C130.254 51.629 130.01 52.1773 130.01 52.9232Z" fill="#0065A2"/>
<path d="M141.275 50.1234C142.335 50.1234 143.198 50.3098 143.867 50.6828V46.9757H144.698V58.506C143.638 58.6368 142.657 58.7036 141.757 58.7036C140.856 58.7036 140.044 58.5394 139.315 58.2082C138.353 57.7685 137.871 57.0059 137.871 55.9177V52.8035C137.871 51.6513 138.396 50.8609 139.444 50.4323C139.962 50.2291 140.575 50.1234 141.275 50.1234ZM143.867 51.3424C143.113 50.9806 142.232 50.7997 141.222 50.7997C141.038 50.7997 140.853 50.8052 140.666 50.8164C140.109 50.8609 139.641 51.0585 139.259 51.4092C138.878 51.7598 138.687 52.2441 138.687 52.8591V55.94C138.687 56.6107 138.953 57.12 139.481 57.4707C140.025 57.8325 140.685 58.0134 141.46 58.0134C142.238 58.0134 143.038 57.9577 143.863 57.8492V51.3424H143.867Z" fill="#0065A2"/>
<path d="M146.945 47.5796C146.839 47.4877 146.789 47.3792 146.789 47.2595C146.789 47.1399 146.842 47.0341 146.945 46.9478C147.049 46.8588 147.17 46.817 147.305 46.817C147.439 46.817 147.558 46.8615 147.655 46.9478C147.755 47.0369 147.802 47.1399 147.802 47.2595C147.802 47.3792 147.752 47.4877 147.655 47.5796C147.555 47.6742 147.439 47.7187 147.305 47.7187C147.17 47.7187 147.052 47.6714 146.945 47.5796ZM146.883 50.2541H147.714V58.506H146.883V50.2541Z" fill="#0065A2"/>
<path d="M155.576 51.2116C154.86 50.9249 154.225 50.783 153.669 50.783C153.113 50.783 152.631 50.847 152.215 50.9722C151.803 51.0975 151.45 51.3674 151.162 51.7793C150.871 52.1912 150.728 52.7089 150.728 53.3351V55.7229C150.728 57.2592 151.715 58.0301 153.688 58.0301C154.291 58.0301 154.95 57.9522 155.666 57.7991L155.851 58.4086C155.06 58.5951 154.347 58.6897 153.703 58.6897C153.062 58.6897 152.434 58.6006 151.815 58.4253C150.534 58.0524 149.89 57.0922 149.89 55.542V53.4325C149.89 52.6532 150.062 51.9992 150.409 51.4732C150.999 50.5631 151.975 50.1067 153.331 50.1067C154.144 50.1067 154.972 50.282 155.81 50.6327L155.576 51.2116Z" fill="#0065A2"/>
<path d="M161.052 58.6729C158.351 58.6729 157.001 57.6905 157.001 55.7257V54.3592C157.001 53.271 157.432 52.5418 158.295 52.1689C158.739 51.9824 159.189 51.8878 159.645 51.8878C161.149 51.8878 162.365 52.1939 163.29 52.809C163.29 52.1828 163.077 51.6791 162.652 51.295C162.227 50.9109 161.446 50.7189 160.311 50.7189C160.286 50.7189 160.255 50.7189 160.217 50.7189L160.274 50.1261C161.274 50.1261 162.012 50.2319 162.493 50.4378C162.752 50.5575 162.981 50.6799 163.177 50.7996C163.374 50.9193 163.528 51.0807 163.64 51.2783C163.753 51.4759 163.843 51.6484 163.918 51.7959C163.993 51.9434 164.04 52.1438 164.065 52.3971C164.103 52.7812 164.121 53.1819 164.121 53.5994V58.5087C162.84 58.6173 161.815 58.6729 161.052 58.6729ZM157.814 54.4065V55.8398C157.814 56.3658 157.957 56.7999 158.248 57.1422C158.539 57.4818 158.93 57.7072 159.423 57.8185C160.533 58.0829 161.821 58.1052 163.29 57.8853V53.4185C162.265 52.9147 161.149 52.6281 159.942 52.5613C159.88 52.5613 159.824 52.5613 159.777 52.5613C159.245 52.5613 158.786 52.706 158.398 52.9982C158.007 53.2877 157.814 53.758 157.814 54.4065Z" fill="#0065A2"/>
<path d="M166.231 46.9784H167.063V58.5087H166.231V46.9784Z" fill="#0065A2"/>
<path d="M175.13 46.9784H181.31V47.6853H175.965V51.7041H179.331L178.981 52.4277H175.965V58.5059H175.134V46.9784H175.13Z" fill="#0065A2"/>
<path d="M182.37 47.5796C182.263 47.4877 182.213 47.3792 182.213 47.2595C182.213 47.1399 182.267 47.0341 182.37 46.9478C182.473 46.8588 182.595 46.817 182.729 46.817C182.864 46.817 182.982 46.8615 183.079 46.9478C183.179 47.0369 183.226 47.1399 183.226 47.2595C183.226 47.3792 183.176 47.4877 183.079 47.5796C182.979 47.6742 182.864 47.7187 182.729 47.7187C182.595 47.7187 182.476 47.6714 182.37 47.5796ZM182.307 50.2541H183.139V58.506H182.307V50.2541Z" fill="#0065A2"/>
<path d="M186.155 46.9784H186.986V58.5087H186.155V46.9784Z" fill="#0065A2"/>
<path d="M195.31 57.9299C194.36 58.4448 193.369 58.7036 192.331 58.7036C190.184 58.7036 189.112 57.9021 189.112 56.299V52.9232C189.112 52.0326 189.425 51.3424 190.047 50.847C190.669 50.3516 191.491 50.1067 192.516 50.1067C193.538 50.1067 194.338 50.3516 194.91 50.8386C195.482 51.3285 195.77 52.0047 195.77 52.8731V54.8491L189.943 55.1301V56.3157C189.943 56.9419 190.172 57.39 190.628 57.6572C191.084 57.9271 191.603 58.0607 192.181 58.0607C193.069 58.0607 194.001 57.8242 194.976 57.3538L195.31 57.9299ZM189.947 52.9232V54.4065L194.941 54.1756V52.7924C194.941 52.0576 194.688 51.5316 194.182 51.2199C193.676 50.9082 193.088 50.7496 192.416 50.7496C191.744 50.7496 191.166 50.9249 190.678 51.2756C190.19 51.6262 189.947 52.1773 189.947 52.9232Z" fill="#0065A2"/>
<path d="M202.618 50.5352L202.321 51.1614C201.853 50.8748 201.274 50.73 200.584 50.7245C199.893 50.7189 199.327 50.8525 198.88 51.128C198.436 51.4036 198.214 51.7709 198.214 52.2301C198.214 52.681 198.427 53.0233 198.852 53.2599C199.277 53.4964 199.758 53.6857 200.296 53.8276C200.834 53.9696 201.368 54.1282 201.906 54.2979C202.443 54.4677 202.897 54.7321 203.265 55.0884C203.634 55.4446 203.822 55.9261 203.822 56.53C203.822 57.1339 203.547 57.6543 203 58.0941C202.453 58.5338 201.649 58.7537 200.596 58.7537C199.543 58.7537 198.711 58.5282 198.108 58.0774C197.505 57.6265 197.189 57.0727 197.164 56.4131H197.958C198.033 56.928 198.311 57.3343 198.799 57.6237C199.286 57.916 199.865 58.0607 200.537 58.0607C201.209 58.0607 201.787 57.9243 202.265 57.6488C202.747 57.3733 202.987 57.0031 202.987 56.5383C202.987 56.0708 202.809 55.7006 202.45 55.4279C202.09 55.1524 201.646 54.9408 201.118 54.7933C200.587 54.6458 200.058 54.4956 199.527 54.3397C198.996 54.1866 198.527 53.9556 198.12 53.6467C197.639 53.2849 197.398 52.8313 197.398 52.2886C197.398 51.7459 197.642 51.2366 198.13 50.7662C198.617 50.2931 199.421 50.0593 200.543 50.0593C200.924 50.0593 201.29 50.1011 201.634 50.1818C201.978 50.2625 202.225 50.3432 202.375 50.4211L202.618 50.5352Z" fill="#0065A2"/>
<path d="M116.219 37.6021L118.435 37.4713C118.535 38.348 119.01 39.1133 119.87 39.7618C120.726 40.4102 121.839 40.7359 123.211 40.7359C124.581 40.7359 125.715 40.452 126.612 39.8814C127.509 39.3109 127.956 38.4816 127.956 37.3934C127.956 36.5863 127.681 35.8961 127.128 35.3256C126.575 34.755 125.887 34.3209 125.059 34.0231C124.23 33.7253 123.33 33.3997 122.352 33.049C121.377 32.6983 120.473 32.356 119.648 32.022C118.82 31.6881 118.129 31.1899 117.579 30.522C117.026 29.854 116.751 29.0581 116.751 28.1257C116.751 26.8984 117.323 25.8352 118.467 24.9391C119.611 24.0429 121.255 23.5977 123.405 23.5977C125.04 23.5977 126.481 23.862 127.722 24.388C127.722 24.4242 127.506 25.0198 127.072 26.1776C125.85 25.7044 124.593 25.4679 123.302 25.4679C122.011 25.4679 120.97 25.7128 120.183 26.2054C119.395 26.698 119.001 27.3632 119.001 28.2064C119.001 29.225 119.761 30.0321 121.277 30.6277C121.946 30.8921 122.68 31.1509 123.48 31.4042C124.277 31.6602 125.071 31.9441 125.859 32.2586C126.647 32.5759 127.372 32.9349 128.031 33.3384C128.691 33.742 129.229 34.2735 129.644 34.9304C130.057 35.5872 130.266 36.3469 130.266 37.2069C130.266 38.8211 129.691 40.1208 128.538 41.1032C127.384 42.0856 125.668 42.5783 123.393 42.5783C121.117 42.5783 119.361 42.0745 118.129 41.0643C116.894 40.054 116.257 38.899 116.219 37.6021Z" fill="#0065A2"/>
<path d="M134.874 38.6541C134.874 40.1459 135.858 40.8917 137.831 40.8917C139.053 40.8917 140.394 40.5327 141.85 39.8119L142.647 41.3648C141.128 42.1886 139.544 42.6033 137.887 42.6033C134.458 42.6033 132.742 41.3231 132.742 38.7599V33.3635C132.742 31.9413 133.239 30.8365 134.236 30.0461C135.23 29.2557 136.546 28.8605 138.184 28.8605C139.819 28.8605 141.097 29.2501 142.013 30.0321C142.929 30.8142 143.388 31.8968 143.388 33.2828V36.8897L134.874 37.2849V38.6541ZM141.231 35.2059V33.1798C141.231 32.2503 140.906 31.5879 140.256 31.1927C139.606 30.7975 138.847 30.5999 137.981 30.5999C137.112 30.5999 136.38 30.8365 135.777 31.3096C135.177 31.7827 134.877 32.4757 134.877 33.3885V35.4953L141.231 35.2059Z" fill="#0065A2"/>
<path d="M151.875 40.7609C152.722 40.7609 153.638 40.6552 154.625 40.4465L155.129 42.1302C153.866 42.428 152.725 42.5783 151.7 42.5783C150.674 42.5783 149.668 42.4364 148.683 42.1581C146.633 41.5625 145.608 40.0262 145.608 37.5521V34.1817C145.608 32.9349 145.883 31.8913 146.436 31.048C147.383 29.5924 148.94 28.8633 151.109 28.8633C152.409 28.8633 153.731 29.1444 155.069 29.7066L154.478 31.2066C153.297 30.8198 152.212 30.6278 151.225 30.6278C150.181 30.6278 149.337 30.9255 148.696 31.5239C148.055 32.1195 147.736 32.9544 147.736 34.0259V37.8443C147.736 39.7869 149.115 40.7609 151.875 40.7609Z" fill="#0065A2"/>
<path d="M167.96 42.2861H165.919V41.312C165.072 42.1553 163.928 42.5755 162.49 42.5755C158.783 42.5755 156.932 40.9697 156.932 37.758V29.097H159.061V37.758C159.061 39.7757 160.205 40.786 162.49 40.786C164.715 40.786 165.831 39.7674 165.831 37.7329V29.097H167.96V42.2861Z" fill="#0065A2"/>
<path d="M173.014 42.286H170.886V29.097H172.955V29.7817C173.843 29.2028 174.965 28.9133 176.324 28.9133C176.993 28.9133 177.734 28.9829 178.541 29.1248L178.009 30.9144C177.318 30.7223 176.606 30.6249 175.865 30.6249C175.127 30.6249 174.465 30.7975 173.883 31.137C173.302 31.4793 173.011 31.9385 173.011 32.5202V42.286H173.014Z" fill="#0065A2"/>
<path d="M181.116 38.6541C181.116 40.1459 182.101 40.8917 184.073 40.8917C185.295 40.8917 186.636 40.5327 188.093 39.8119L188.89 41.3648C187.371 42.1886 185.786 42.6033 184.13 42.6033C180.701 42.6033 178.984 41.3231 178.984 38.7599V33.3635C178.984 31.9413 179.482 30.8365 180.479 30.0461C181.473 29.2557 182.789 28.8605 184.426 28.8605C186.061 28.8605 187.34 29.2501 188.256 30.0321C189.171 30.8142 189.631 31.8968 189.631 33.2828V36.8897L181.116 37.2849V38.6541ZM187.474 35.2059V33.1798C187.474 32.2503 187.149 31.5879 186.499 31.1927C185.849 30.7975 185.089 30.5999 184.223 30.5999C183.354 30.5999 182.623 30.8365 182.02 31.3096C181.419 31.7827 181.119 32.4757 181.119 33.3885V35.4953L187.474 35.2059Z" fill="#0065A2"/>
<path d="M195.604 29.3866C196.47 29.0526 197.52 28.8856 198.752 28.8856C199.983 28.8856 201.024 29.1305 201.871 29.6231V23.8594H204V42.2861C202.306 42.4977 200.737 42.6034 199.299 42.6034C197.861 42.6034 196.558 42.339 195.395 41.813C193.857 41.1117 193.088 39.8927 193.088 38.1533V33.1771C193.091 31.3347 193.929 30.0712 195.604 29.3866ZM201.871 31.4405C200.846 30.9507 199.724 30.703 198.502 30.703C197.339 30.703 196.495 30.9701 195.973 31.5045C195.451 32.0388 195.188 32.7207 195.188 33.5445V38.2312C195.188 39.0383 195.514 39.67 196.164 40.1265C196.873 40.5996 197.752 40.8362 198.796 40.8362C199.84 40.8362 200.865 40.7666 201.871 40.6246V31.4405Z" fill="#0065A2"/>
<path d="M105.882 17.5446H104.769V63.5266H105.882V17.5446Z" fill="#0065A2"/>
</svg>
