<svg width="19" height="18" viewBox="0 0 19 18" fill="none" xmlns="http://www.w3.org/2000/svg">
<path d="M14.8242 4.125L14.3594 11.6438C14.2406 13.5648 14.1813 14.5253 13.6998 15.2159C13.4617 15.5573 13.1552 15.8455 12.7997 16.062C12.0808 16.5 11.1185 16.5 9.19374 16.5C7.26656 16.5 6.30294 16.5 5.58351 16.0612C5.22782 15.8443 4.92122 15.5556 4.68323 15.2136C4.20188 14.5219 4.14381 13.5601 4.02768 11.6364L3.57422 4.125" stroke="#CE2C31" stroke-width="1.25" stroke-linecap="round"/>
<path d="M2.44922 4.125H15.9492M12.241 4.125L11.729 3.0688C11.3889 2.3672 11.2188 2.01639 10.9255 1.79761C10.8605 1.74908 10.7915 1.7059 10.7195 1.66852C10.3946 1.5 10.0048 1.5 9.22509 1.5C8.42582 1.5 8.02622 1.5 7.69598 1.67559C7.62279 1.71451 7.55295 1.75943 7.48719 1.80988C7.19045 2.03753 7.02469 2.40116 6.69318 3.12844L6.23891 4.125" stroke="#CE2C31" stroke-width="1.25" stroke-linecap="round"/>
<path d="M7.32422 12.375V7.875" stroke="#CE2C31" stroke-width="1.25" stroke-linecap="round"/>
<path d="M11.0742 12.375V7.875" stroke="#CE2C31" stroke-width="1.25" stroke-linecap="round"/>
</svg>
