<svg width="20" height="20" viewBox="0 0 20 20" fill="none" xmlns="http://www.w3.org/2000/svg">
<path d="M16.6666 18.3334V15.8334C16.6666 13.4764 16.6666 12.2979 15.9344 11.5656C15.2021 10.8334 14.0236 10.8334 11.6666 10.8334L9.99998 12.5L8.33331 10.8334C5.97629 10.8334 4.79778 10.8334 4.06555 11.5656C3.33331 12.2979 3.33331 13.4764 3.33331 15.8334V18.3334" stroke="#5E5D5D" stroke-width="1.25" stroke-linecap="round" stroke-linejoin="round"/>
<path d="M13.3333 10.8334V15.4167" stroke="#5E5D5D" stroke-width="1.25" stroke-linecap="round" stroke-linejoin="round"/>
<path d="M7.08335 10.8334V14.1667M7.08335 14.1667C8.00383 14.1667 8.75002 14.9129 8.75002 15.8334V16.6667M7.08335 14.1667C6.16288 14.1667 5.41669 14.9129 5.41669 15.8334V16.6667" stroke="#5E5D5D" stroke-width="1.25" stroke-linecap="round" stroke-linejoin="round"/>
<path d="M12.9166 5.41663V4.58329C12.9166 2.97246 11.6108 1.66663 9.99998 1.66663C8.38915 1.66663 7.08331 2.97246 7.08331 4.58329V5.41663C7.08331 7.02746 8.38915 8.33329 9.99998 8.33329C11.6108 8.33329 12.9166 7.02746 12.9166 5.41663Z" stroke="#5E5D5D" stroke-width="1.25" stroke-linecap="round" stroke-linejoin="round"/>
<path d="M13.9583 16.0416C13.9583 16.3868 13.6785 16.6666 13.3333 16.6666C12.9881 16.6666 12.7083 16.3868 12.7083 16.0416C12.7083 15.6965 12.9881 15.4166 13.3333 15.4166C13.6785 15.4166 13.9583 15.6965 13.9583 16.0416Z" stroke="#5E5D5D" stroke-width="1.25"/>
</svg>
