<svg width="200" height="151" viewBox="0 0 200 151" fill="none" xmlns="http://www.w3.org/2000/svg">
<path d="M200 51C200 106.228 155.228 151 100 151C44.7715 151 0 106.228 0 51C0 -4.22846 44.7715 36.5 100 36.5C155.228 36.5 200 -4.22846 200 51Z" fill="#EBF3F8"/>
<path d="M83.3335 70.8334H116.667" stroke="#0065A2" stroke-width="4" stroke-linecap="round" stroke-linejoin="round"/>
<path d="M83.3335 54.1666H100" stroke="#0065A2" stroke-width="4" stroke-linecap="round" stroke-linejoin="round"/>
<path d="M104.167 10.4167V12.5C104.167 24.2852 104.167 30.1777 107.828 33.8389C111.489 37.5 117.382 37.5 129.167 37.5H131.25M133.333 44.4038V58.3334C133.333 74.0467 133.333 81.9038 128.452 86.785C123.57 91.6667 115.713 91.6667 99.9998 91.6667C84.2863 91.6667 76.4296 91.6667 71.548 86.785C66.6665 81.9038 66.6665 74.0467 66.6665 58.3334V39.3994C66.6665 25.8785 66.6665 19.118 70.3585 14.5389C71.1043 13.6138 71.947 12.7712 72.872 12.0253C77.4511 8.33337 84.2116 8.33337 97.7323 8.33337C100.672 8.33337 102.142 8.33337 103.488 8.80842C103.768 8.90721 104.042 9.02087 104.31 9.149C105.598 9.76483 106.637 10.8042 108.716 12.8829L128.452 32.6185C130.86 35.0271 132.064 36.2314 132.699 37.7628C133.333 39.2942 133.333 40.9973 133.333 44.4038Z" stroke="#0065A2" stroke-width="4" stroke-linecap="round" stroke-linejoin="round"/>
</svg>
