<svg width="20" height="20" viewBox="0 0 20 20" fill="none" xmlns="http://www.w3.org/2000/svg">
<path d="M13.5901 3.65324C13.0976 3.65324 12.8513 3.65324 12.6269 3.57C12.5958 3.55843 12.5651 3.54572 12.5348 3.53186C12.3173 3.43208 12.1433 3.25795 11.7949 2.90968C10.9933 2.1081 10.5926 1.70731 10.0994 1.67035C10.0332 1.66538 9.9665 1.66538 9.90025 1.67035C9.40709 1.70731 9.00625 2.1081 8.20471 2.90968C7.85645 3.25795 7.68231 3.43208 7.46481 3.53186C7.4346 3.54572 7.40389 3.55843 7.37273 3.57C7.14838 3.65324 6.90211 3.65324 6.4096 3.65324H6.31875C5.06215 3.65324 4.43386 3.65324 4.0435 4.04362C3.65312 4.43398 3.65312 5.06228 3.65312 6.31887V6.40972C3.65312 6.90223 3.65312 7.1485 3.56988 7.37285C3.55831 7.40401 3.5456 7.43473 3.53174 7.46493C3.43196 7.68243 3.25783 7.85657 2.90955 8.20483C2.10798 9.00638 1.70719 9.40721 1.67023 9.90038C1.66526 9.96663 1.66526 10.0333 1.67023 10.0995C1.70719 10.5927 2.10798 10.9935 2.90955 11.795C3.25783 12.1434 3.43196 12.3175 3.53174 12.535C3.5456 12.5652 3.55831 12.5959 3.56988 12.627C3.65312 12.8514 3.65312 13.0977 3.65312 13.5902V13.681C3.65312 14.9376 3.65312 15.566 4.0435 15.9563C4.43386 16.3467 5.06215 16.3467 6.31875 16.3467H6.4096C6.90211 16.3467 7.14838 16.3467 7.37273 16.4299C7.40389 16.4415 7.4346 16.4542 7.46481 16.468C7.68231 16.5679 7.85645 16.742 8.20471 17.0902C9.00625 17.8918 9.40709 18.2926 9.90025 18.3295C9.9665 18.3345 10.0332 18.3345 10.0994 18.3295C10.5926 18.2926 10.9933 17.8918 11.7949 17.0902C12.1433 16.742 12.3173 16.5679 12.5348 16.468C12.5651 16.4542 12.5958 16.4415 12.6269 16.4299C12.8513 16.3467 13.0976 16.3467 13.5901 16.3467H13.6809C14.9375 16.3467 15.5658 16.3467 15.9562 15.9563C16.3466 15.566 16.3466 14.9376 16.3466 13.681V13.5902C16.3466 13.0977 16.3466 12.8514 16.4298 12.627C16.4413 12.5959 16.4541 12.5652 16.4679 12.535C16.5678 12.3175 16.7418 12.1434 17.0901 11.795C17.8917 10.9935 18.2925 10.5927 18.3294 10.0995C18.3344 10.0333 18.3344 9.96663 18.3294 9.90038C18.2925 9.40721 17.8917 9.00638 17.0901 8.20483C16.7418 7.85657 16.5678 7.68243 16.4679 7.46493C16.4541 7.43473 16.4413 7.40401 16.4298 7.37285C16.3466 7.1485 16.3466 6.90223 16.3466 6.40972V6.31887C16.3466 5.06228 16.3466 4.43398 15.9562 4.04362C15.5658 3.65324 14.9375 3.65324 13.6809 3.65324H13.5901Z" stroke="#0065A2" stroke-width="1.25"/>
<path d="M7.0835 13.75C7.66569 12.7435 8.75383 12.0664 10.0002 12.0664C11.2465 12.0664 12.3347 12.7435 12.9168 13.75M11.6668 8.33328C11.6668 9.25378 10.9207 9.99995 10.0002 9.99995C9.07975 9.99995 8.3335 9.25378 8.3335 8.33328C8.3335 7.41282 9.07975 6.66663 10.0002 6.66663C10.9207 6.66663 11.6668 7.41282 11.6668 8.33328Z" stroke="#0065A2" stroke-width="1.25" stroke-linecap="round"/>
</svg>
