<svg width="41" height="40" viewBox="0 0 41 40" fill="none" xmlns="http://www.w3.org/2000/svg">
<rect x="0.199219" width="40" height="40" rx="20" fill="#E6F0F6"/>
<path d="M28.2421 25.5C28.9289 25.5 29.4752 25.0678 29.9658 24.4633C30.97 23.2261 29.3212 22.2374 28.6925 21.7532C28.0532 21.261 27.3395 20.9821 26.6159 20.9167M25.6992 19.0833C26.9649 19.0833 27.9909 18.0573 27.9909 16.7917C27.9909 15.526 26.9649 14.5 25.6992 14.5" stroke="#0065A2" stroke-width="1.5" stroke-linecap="round"/>
<path d="M12.1563 25.5C11.4695 25.5 10.9232 25.0678 10.4326 24.4633C9.42845 23.2261 11.0772 22.2374 11.706 21.7532C12.3452 21.261 13.0589 20.9821 13.7825 20.9167M14.2409 19.0833C12.9752 19.0833 11.9492 18.0573 11.9492 16.7917C11.9492 15.526 12.9752 14.5 14.2409 14.5" stroke="#0065A2" stroke-width="1.5" stroke-linecap="round"/>
<path d="M16.6094 22.8516C15.6727 23.4308 13.2169 24.6133 14.7127 26.0931C15.4433 26.816 16.2571 27.333 17.2802 27.333H23.1182C24.1413 27.333 24.9551 26.816 25.6857 26.0931C27.1815 24.6133 24.7257 23.4308 23.7891 22.8516C21.5926 21.4935 18.8058 21.4935 16.6094 22.8516Z" stroke="#0065A2" stroke-width="1.5" stroke-linecap="round" stroke-linejoin="round"/>
<path d="M23.4075 15.8753C23.4075 17.6472 21.9711 19.0837 20.1992 19.0837C18.4273 19.0837 16.9909 17.6472 16.9909 15.8753C16.9909 14.1034 18.4273 12.667 20.1992 12.667C21.9711 12.667 23.4075 14.1034 23.4075 15.8753Z" stroke="#0065A2" stroke-width="1.5"/>
</svg>
