<svg width="20" height="20" viewBox="0 0 20 20" fill="none" xmlns="http://www.w3.org/2000/svg">
<path d="M16.6666 18.3335V15.8335C16.6666 13.4765 16.6666 12.298 15.9344 11.5657C15.2021 10.8335 14.0236 10.8335 11.6666 10.8335L9.99998 12.5002L8.33331 10.8335C5.97629 10.8335 4.79778 10.8335 4.06555 11.5657C3.33331 12.298 3.33331 13.4765 3.33331 15.8335V18.3335" stroke="#5E5D5D" stroke-width="1.25" stroke-linecap="round" stroke-linejoin="round"/>
<path d="M12.9166 5.41675V4.58341C12.9166 2.97259 11.6108 1.66675 9.99998 1.66675C8.38915 1.66675 7.08331 2.97259 7.08331 4.58341V5.41675C7.08331 7.02758 8.38915 8.3334 9.99998 8.3334C11.6108 8.3334 12.9166 7.02758 12.9166 5.41675Z" stroke="#5E5D5D" stroke-width="1.25" stroke-linecap="round" stroke-linejoin="round"/>
<path d="M13.3333 13.3335V15.8335M14.5833 14.5835H12.0833" stroke="#5E5D5D" stroke-width="1.25" stroke-linecap="round" stroke-linejoin="round"/>
</svg>
