<svg width="20" height="20" viewBox="0 0 20 20" fill="none" xmlns="http://www.w3.org/2000/svg">
<path d="M17.3117 14.6816C17.9361 14.6816 18.4327 14.2887 18.8787 13.7392C19.7916 12.6145 18.2928 11.7156 17.7212 11.2755C17.14 10.828 16.4912 10.5745 15.8333 10.515M15 8.84831C16.1506 8.84831 17.0833 7.91557 17.0833 6.76497C17.0833 5.61438 16.1506 4.68164 15 4.68164" stroke="#5E5D5D" stroke-width="1.5" stroke-linecap="round"/>
<path d="M2.68846 14.6816C2.06404 14.6816 1.56739 14.2887 1.12145 13.7392C0.208568 12.6145 1.70739 11.7156 2.27904 11.2755C2.86014 10.828 3.50898 10.5745 4.16683 10.515M4.58349 8.84831C3.4329 8.84831 2.50016 7.91557 2.50016 6.76497C2.50016 5.61438 3.4329 4.68164 4.58349 4.68164" stroke="#5E5D5D" stroke-width="1.5" stroke-linecap="round"/>
<path d="M6.73666 12.2741C5.88519 12.8006 3.65265 13.8757 5.01241 15.221C5.67664 15.8781 6.41643 16.3481 7.34652 16.3481H12.6538C13.5839 16.3481 14.3237 15.8781 14.9879 15.221C16.3477 13.8757 14.1152 12.8006 13.2637 12.2741C11.2669 11.0395 8.73341 11.0395 6.73666 12.2741Z" stroke="#5E5D5D" stroke-width="1.5" stroke-linecap="round" stroke-linejoin="round"/>
<path d="M12.9168 5.9318C12.9168 7.54264 11.611 8.84847 10.0002 8.84847C8.38933 8.84847 7.0835 7.54264 7.0835 5.9318C7.0835 4.32097 8.38933 3.01514 10.0002 3.01514C11.611 3.01514 12.9168 4.32097 12.9168 5.9318Z" stroke="#5E5D5D" stroke-width="1.5"/>
</svg>
